Title                            : S.W.A.T.: Firefight
Year                             : 2011
Genre                            : Action
iMDB URL                         : http://www.imdb.com/title/tt1621429/

Complete name                    : S.W.A.T.Firefight.2011.BRRIP.720P.H264-ZEKTORM.mp4
Format                           : MPEG-4
Format profile                   : Base Media
Codec ID                         : isom
File size                        : 1.95 GiB
Duration                         : 1h 28mn
Overall bit rate                 : 3154 Kbps

Video
ID                               : 1
Format                           : AVC
Format/Info                      : Advanced Video Codec
Format profile                   : High@L4.0
Format settings, CABAC           : Yes
Format settings, ReFrames        : 9 frames
Codec ID                         : avc1
Codec ID/Info                    : Advanced Video Coding
Duration                         : 1h 28mn
Bit rate mode                    : Variable
Bit rate                         : 2934 Kbps
Width                            : 1280 pixels
Height                           : 720 pixels
Display aspect ratio             : 16/9
Frame rate mode                  : Constant
Frame rate                       : 23.976 fps
Resolution                       : 24 bits
Colorimetry                      : 4:2:0
Scan type                        : Progressive
Bits/(Pixel*Frame)               : 0.133
Stream size                      : 1.82 GiB (93%)
Title                            : Video
Writing library                  : x264

Audio
ID                               : 2
Format                           : AAC
Format/Info                      : Advanced Audio Codec
Format version                   : Version 4
Format profile                   : LC
Format settings, SBR             : Yes
Format settings, PS              : No
Codec ID                         : 40
Duration                         : 1h 28mn
Bit rate mode                    : Variable
Bit rate                         : 218 Kbps
Maximum bit rate                 : 279 Kbps
Channel(s)                       : 6 channels
Channel positions                : Front: L C R, Rear: L R, LFE
Sampling rate                    : 48.0 KHz
Resolution                       : 16 bits
Stream size                      : 138 MiB (7%)
Title                            : English
Language                         : English


Screenshots:
 
http://img413.imageshack.us/img413/6195/snapsw1.png
 
http://img402.imageshack.us/img402/7743/snapsw2.png
 
http://img832.imageshack.us/img832/776/snapsw3.png
 
http://img576.imageshack.us/img576/4985/snapsw4.png
